<svg viewBox="0 0 32 25" xmlns="http://www.w3.org/2000/svg" xmlns:xlink="http://www.w3.org/1999/xlink"><style>:root&gt;svg{display:none}:root&gt;svg:target{display:block}</style><svg fill="none" viewBox="0 0 24 24" id="facebook" xmlns="http://www.w3.org/2000/svg"><path d="M18 2h-3a5 5 0 00-5 5v3H7v4h3v8h4v-8h3l1-4h-4V7a1 1 0 011-1h3V2z" stroke="#41EAD4" stroke-width="2" stroke-linecap="round" stroke-linejoin="round"/></svg><svg fill="none" viewBox="0 0 24 24" id="instagram" xmlns="http://www.w3.org/2000/svg"><g clip-path="url(#bclip0)" stroke="#41EAD4" stroke-width="2" stroke-linecap="round" stroke-linejoin="round"><path d="M17 2H7a5 5 0 00-5 5v10a5 5 0 005 5h10a5 5 0 005-5V7a5 5 0 00-5-5z"/><path d="M16 11.37a4 4 0 11-7.914 1.174A4 4 0 0116 11.37z"/></g><defs><clipPath id="bclip0"><path fill="#fff" d="M0 0h24v24H0z"/></clipPath></defs></svg><svg fill="none" viewBox="0 0 24 24" id="lupe" xmlns="http://www.w3.org/2000/svg"><path d="M11 19a8 8 0 100-16 8 8 0 000 16zm10 2l-4.35-4.35" stroke="#fff" stroke-width="2" stroke-linecap="round" stroke-linejoin="round"/></svg><svg fill="none" viewBox="0 0 32 25" id="sem" xmlns="http://www.w3.org/2000/svg"><path d="M31.71 0l.097.192c-1.927 1.021-3.502 2.522-4.723 4.501-1.22 1.916-1.831 3.928-1.831 6.035 0 .32.032.575.096.766l.386.383c.193.064.45.128.771.192 1.67.255 2.988.99 3.952 2.203C31.486 15.422 32 16.826 32 18.487c0 1.851-.643 3.416-1.928 4.693-1.285 1.213-2.891 1.82-4.819 1.82-2.185 0-3.952-.734-5.301-2.203-1.35-1.469-2.024-3.416-2.024-5.843 0-3.831 1.285-7.375 3.855-10.632C24.353 3.065 27.663.958 31.711 0zM13.784 0l.097.192c-1.928 1.021-3.503 2.522-4.723 4.501-1.221 1.916-1.832 3.928-1.832 6.035 0 .32.032.575.097.766l.385.383c.193.064.45.128.771.192 1.671.255 2.988.99 3.952 2.203 1.028 1.15 1.542 2.554 1.542 4.215 0 1.851-.642 3.416-1.927 4.693C10.859 24.393 9.253 25 7.325 25c-2.184 0-3.952-.734-5.3-2.203C.674 21.328 0 19.38 0 16.954c0-3.831 1.285-7.375 3.855-10.632C6.425 3.065 9.735.958 13.783 0z" fill="#41EAD4"/></svg><svg fill="none" viewBox="0 0 24 24" id="twitter" xmlns="http://www.w3.org/2000/svg"><path d="M23 3a10.9 10.9 0 01-3.14 1.53 4.48 4.48 0 00-7.86 3v1A10.66 10.66 0 013 4s-4 9 5 13a11.64 11.64 0 01-7 2c9 5 20 0 20-11.5 0-.279-.028-.556-.08-.83A7.72 7.72 0 0023 3v0z" stroke="#41EAD4" stroke-width="2" stroke-linecap="round" stroke-linejoin="round"/></svg></svg>